# xmcd
#
# Track frame offsets: 
#        150
#        31079
#        56494
#        80767
#        99394
#        120197
#        141667
#        162922
#        187654
#        223012
#        247654
#        298037
#
# Disc length: 4440 seconds
#
# Revision: 1
# Processed by: cddbd v1.5PL3 Copyright (c) Steve Scherf et al.
# Submitted via: ExactAudioCopy v0.95a3
#
DISCID=9d11560c
DTITLE=The Chemical Brothers - Singles 93-03 (Bonus disc)
DYEAR=2003
DGENRE=Techno
TTITLE0=Not Another Drugstore (Planet Nine Mix)
TTITLE1=The Duke
TTITLE2=If You Kling To Me I'll Klong To You
TTITLE3=Otter Rock
TTITLE4=Morning Lemon
TTITLE5=Galaxy Bounce (Original Mix)
TTITLE6=Loops Of Fury
TTITLE7=Delik
TTITLE8=Elektrobank (Live From The Roxy NYC Nov. 96)
TTITLE9=Under The Influence (Mix 2)
TTITLE10=It Began In Afrika
TTITLE11=CCCD
EXTD=YEAR: 2003
EXTT0=
EXTT1=
EXTT2=
EXTT3=
EXTT4=
EXTT5=
EXTT6=
EXTT7=
EXTT8=
EXTT9=
EXTT10=
EXTT11=
PLAYORDER=
